<svg version="1" xmlns="http://www.w3.org/2000/svg" width="666.667" height="666.667" viewBox="0 0 500.000000 500.000000"><path d="M125 .6C92.9 3 75.5 7.6 57.2 18.5 31 34.1 12.7 59.2 5.5 89.5c-5 20.7-5 22.3-5 160.5s0 139.8 5 160.5c10.1 42.4 41.6 73.9 84 84 20.7 5 22.3 5 160.5 5s139.8 0 160.5-5c42.4-10.1 73.9-41.6 84-84 5-20.7 5-22.3 5-160.5s0-139.8-5-160.5c-9.9-41.5-40.9-73.1-82-83.6C391.9.6 393.1.7 256.5.5c-69.8-.1-129 0-131.5.1zm162.3 120.5c30.2 5.5 57.8 22.3 73.9 44.9 4.9 6.9 13.8 23.7 13.8 26.1 0 .9-10.4 6.4-27.7 14.7-15.3 7.3-28.1 13.2-28.5 13.2-.4 0-2.1-2.6-3.7-5.8-8.9-17.7-23.7-29.5-41.6-33.2-8.2-1.7-24.7-1.5-32 .5-22.4 6-40 23.9-47.7 48.5-3.1 10-3.3 31.9-.4 42 7.6 26.2 27.4 45.4 51.5 50 14.3 2.7 32.3.2 44.1-6.1 11-5.8 23.2-19.3 27.9-30.7.8-1.8 1.8-3.2 2.4-3.2 1.1 0 55.7 25.8 57 26.9 1.1 1-7.3 17.5-13.1 25.7-15.2 21.4-40.1 38.3-67 45.4-40.2 10.8-84.6 3.6-115.9-18.7-29.4-20.8-47.7-49.6-53.9-84.6-2.2-12.4-2.3-37.2-.1-49.3 6.6-36.8 29.8-70.4 62.3-90.1 27.8-16.9 63.3-22.7 98.7-16.2z"/></svg>